<svg width="100" height="39" viewBox="0 0 100 39" fill="none" xmlns="http://www.w3.org/2000/svg">
    <g clip-path="url(#clip0_401_887)">
        <path d="M10.9944 17.7426C10.2573 18.4426 9.14628 18.3768 8.44686 17.6371C7.78309 16.9388 7.77585 15.8244 8.51295 15.1261C9.21527 14.4626 10.3611 14.4919 11.0263 15.1925C11.7266 15.9299 11.6941 17.0774 10.9944 17.7426ZM17.3562 24.4487C16.6199 25.147 15.5072 25.0809 14.8402 24.3812C14.1434 23.6432 14.173 22.5702 14.9095 21.8684C15.6092 21.2047 16.722 21.1983 17.4202 21.9345C18.0857 22.636 18.0562 23.7832 17.3562 24.4487Z" fill="url(#paint0_linear_401_887)"/>
        <path d="M14.5827 21.2423C13.7061 22.0745 12.3803 21.9937 11.5928 21.1632C10.7592 20.287 10.7557 18.9626 11.6308 18.1322C12.4629 17.3415 13.8296 17.3777 14.6586 18.2545C15.4496 19.0881 15.4131 20.4519 14.5827 21.2423Z" fill="url(#paint1_linear_401_887)"/>
        <path d="M8.00379 20.7884C7.45249 21.3105 6.55451 21.2542 6.03016 20.7012C5.50581 20.1464 5.52987 19.2861 6.08379 18.7626C6.63596 18.2377 7.53249 18.2247 8.05655 18.7777C8.58177 19.3305 8.55771 20.2635 8.00379 20.7884Z" fill="url(#paint2_linear_401_887)"/>
        <path d="M13.559 26.6458C13.0077 27.1711 12.1459 27.1476 11.6225 26.5963C11.0967 26.0435 11.0851 25.1435 11.639 24.6203C12.1903 24.0939 13.1248 24.1218 13.6483 24.6734C14.1729 25.2261 14.112 26.1226 13.559 26.6458Z" fill="url(#paint3_linear_401_887)"/>
        <path d="M6.66837 9.44867C6.42489 9.19273 6.43561 8.76171 6.73011 8.48113C6.98779 8.23678 7.41852 8.24664 7.6646 8.50432C7.94461 8.80142 7.93388 9.22896 7.67388 9.47505C7.38055 9.75563 6.94982 9.74404 6.66837 9.44867Z" fill="url(#paint4_linear_401_887)"/>
        <path d="M1.90785 13.911C1.6635 13.6533 1.67596 13.2258 1.93335 12.9797C2.22959 12.6988 2.65799 12.7107 2.90408 12.9667C3.18292 13.2623 3.1722 13.693 2.87684 13.9736C2.61857 14.218 2.18785 14.2084 1.90785 13.911Z" fill="url(#paint5_linear_401_887)"/>
        <path d="M0.279419 11.6574C0.0797085 11.4478 0.0895636 11.098 0.29826 10.8982C0.53942 10.6687 0.890147 10.6768 1.08928 10.8898C1.31797 11.1293 1.30783 11.4777 1.06696 11.7055C0.857973 11.9052 0.507246 11.8985 0.279419 11.6574Z" fill="url(#paint6_linear_401_887)"/>
        <path d="M4.59296 7.45099C4.39238 7.23968 4.40224 6.89128 4.61267 6.68982C4.85209 6.462 5.20282 6.47214 5.40253 6.68171C5.63036 6.92287 5.6205 7.27273 5.38021 7.50055C5.17093 7.70026 4.82021 7.69215 4.59296 7.45099Z" fill="url(#paint7_linear_401_887)"/>
        <path d="M1.34577 8.32085C1.10055 8.06171 1.11301 7.6307 1.36896 7.3849C1.62664 7.14229 2.0591 7.15388 2.30577 7.41302C2.58229 7.70519 2.57099 8.13766 2.31331 8.382C2.05563 8.62635 1.6249 8.61331 1.34577 8.32085Z" fill="url(#paint8_linear_401_887)"/>
        <path d="M8.87967 12.0139C8.45967 11.573 8.51561 10.893 8.92199 10.5084C9.36344 10.0893 10.0084 10.1055 10.4275 10.5467C10.8121 10.9542 10.7947 11.5997 10.355 12.0174C9.94779 12.4052 9.26518 12.4217 8.87967 12.0139Z" fill="url(#paint9_linear_401_887)"/>
        <path d="M3.83184 16.8017C3.41328 16.3609 3.43068 15.7136 3.87155 15.2959C4.27764 14.9133 4.95938 14.8933 5.3788 15.3357C5.76257 15.742 5.71068 16.4238 5.3046 16.8067C4.86228 17.2258 4.21677 17.2093 3.83184 16.8017Z" fill="url(#paint10_linear_401_887)"/>
        <path d="M3.28547 11.1043C2.90083 10.6985 2.95533 10.0165 3.35881 9.63186C3.80142 9.21273 4.44751 9.2307 4.83157 9.63708C5.25273 10.078 5.23621 10.7249 4.79273 11.144C4.38751 11.5287 3.70577 11.5469 3.28547 11.1043Z" fill="url(#paint11_linear_401_887)"/>
        <path d="M5.82332 14.2229C5.30157 13.6716 5.36013 12.7765 5.91172 12.2498C6.46738 11.7249 7.32912 11.7496 7.85144 12.3029C8.37637 12.8542 8.38941 13.7525 7.83492 14.2774C7.28158 14.8023 6.34912 14.7762 5.82332 14.2229Z" fill="url(#paint12_linear_401_887)"/>
        <path d="M23.0649 26.1142C23.3173 26.3653 23.7481 26.3618 24.0321 26.0731C24.2831 25.8203 24.2797 25.3896 24.0272 25.14C23.7365 24.8545 23.3089 24.8563 23.0579 25.1102C22.7741 25.3977 22.7741 25.827 23.0649 26.1142Z" fill="url(#paint13_linear_401_887)"/>
        <path d="M18.5016 30.7812C18.7561 31.0305 19.1851 31.0287 19.4364 30.7763C19.7233 30.4856 19.7202 30.0566 19.4691 29.8053C19.1787 29.5215 18.7462 29.5247 18.4619 29.8119C18.2112 30.065 18.2146 30.4957 18.5016 30.7812Z" fill="url(#paint14_linear_401_887)"/>
        <path d="M20.7223 32.4572C20.9287 32.6601 21.2785 32.6583 21.4835 32.4537C21.718 32.2192 21.7145 31.8679 21.5081 31.6644C21.2722 31.4317 20.9223 31.4317 20.6875 31.6679C20.4861 31.8743 20.4861 32.2244 20.7223 32.4572Z" fill="url(#paint15_linear_401_887)"/>
        <path d="M25.0175 28.234C25.2238 28.4354 25.5757 28.4354 25.7786 28.2276C26.0131 27.9928 26.0099 27.6415 25.805 27.4383C25.5691 27.2038 25.2175 27.207 24.9847 27.4447C24.7815 27.6496 24.7815 28.0012 25.0175 28.234Z" fill="url(#paint16_linear_401_887)"/>
        <path d="M24.0785 31.4615C24.3344 31.709 24.7652 31.7076 25.0159 31.4551C25.2652 31.2041 25.2634 30.7699 25.0095 30.5206C24.7223 30.2366 24.2898 30.238 24.0388 30.4908C23.7895 30.7432 23.7947 31.176 24.0785 31.4615Z" fill="url(#paint17_linear_401_887)"/>
        <path d="M20.5457 23.8508C20.9765 24.28 21.6585 24.2389 22.0513 23.8426C22.4802 23.4102 22.4771 22.7647 22.0446 22.3371C21.6452 21.9426 20.9999 21.9458 20.5721 22.3786C20.1791 22.7763 20.146 23.4597 20.5457 23.8508Z" fill="url(#paint18_linear_401_887)"/>
        <path d="M15.6523 28.7986C16.0848 29.2276 16.7303 29.223 17.1613 28.7902C17.5526 28.3908 17.5839 27.7122 17.1514 27.2832C16.7517 26.8905 16.0714 26.9267 15.6787 27.3258C15.2529 27.7601 15.2561 28.4059 15.6523 28.7986Z" fill="url(#paint19_linear_401_887)"/>
        <path d="M21.3396 29.4624C21.7359 29.8569 22.4194 29.8157 22.8107 29.4198C23.2414 28.9838 23.2365 28.3398 22.8388 27.947C22.4063 27.5195 21.7588 27.5209 21.3315 27.9551C20.9367 28.3511 20.9054 29.0363 21.3396 29.4624Z" fill="url(#paint20_linear_401_887)"/>
        <path d="M18.2705 26.8589C18.8119 27.3954 19.7102 27.354 20.2482 26.8125C20.7832 26.2711 20.7763 25.4093 20.2348 24.8731C19.6934 24.3363 18.7954 24.305 18.2603 24.8481C17.7224 25.3913 17.729 26.3238 18.2705 26.8589Z" fill="url(#paint21_linear_401_887)"/>
        <path d="M14.0542 14.9641C14.5991 14.4307 14.5759 13.5313 14.0443 12.9881C13.5095 12.4432 12.6495 12.4336 12.1046 12.967C11.5591 13.4986 11.5127 14.3948 12.0452 14.9397C12.5785 15.4844 13.5127 15.4957 14.0542 14.9641Z" fill="url(#paint22_linear_401_887)"/>
        <path d="M19.697 20.7392C20.2419 20.2076 20.2532 19.3444 19.7234 18.8006C19.1886 18.2542 18.2906 18.2096 17.7457 18.7412C17.2011 19.2728 17.1912 20.2076 17.7228 20.7522C18.2541 21.2971 19.1521 21.2725 19.697 20.7392Z" fill="url(#paint23_linear_401_887)"/>
        <path d="M14.8666 17.5148C14.1684 16.7768 14.2324 15.6643 14.9721 14.9675C15.6722 14.3041 16.7849 14.2974 17.4849 15.0339C18.1452 15.7336 18.1156 16.8829 17.4156 17.5446C16.6794 18.2444 15.5336 18.2131 14.8666 17.5148ZM8.16082 23.8739C7.46313 23.1377 7.52922 22.025 8.22922 21.3629C8.96546 20.6632 10.0426 20.691 10.7402 21.4276C11.4046 22.1276 11.4113 23.2418 10.675 23.94C9.97329 24.6055 8.82575 24.5757 8.16082 23.8739Z" fill="url(#paint24_linear_401_887)"/>
        <path d="M23.1606 13.1878C23.4183 12.9435 23.8508 12.9565 24.1282 13.2487C24.3725 13.5081 24.3592 13.9374 24.105 14.1817C23.8093 14.4643 23.3786 14.4525 23.1343 14.1933C22.8534 13.8991 22.8667 13.4684 23.1606 13.1878Z" fill="url(#paint25_linear_401_887)"/>
        <path d="M18.6967 8.42983C18.9541 8.18548 19.3869 8.19534 19.6312 8.45302C19.9118 8.74867 19.8988 9.17592 19.6411 9.42404C19.3472 9.70462 18.9147 9.69129 18.6356 9.39737C18.3912 9.13621 18.4028 8.70896 18.6967 8.42983Z" fill="url(#paint26_linear_401_887)"/>
        <path d="M20.9519 6.79881C21.1615 6.5991 21.5131 6.60895 21.7128 6.81852C21.9406 7.05968 21.9325 7.40809 21.7195 7.6078C21.4818 7.83736 21.1316 7.82577 20.9024 7.58635C20.7027 7.37504 20.7125 7.02663 20.9519 6.79881Z" fill="url(#paint27_linear_401_887)"/>
        <path d="M25.1584 11.111C25.3697 10.9127 25.7199 10.9214 25.9196 11.1307C26.1457 11.3719 26.1375 11.7235 25.9277 11.9217C25.6865 12.1493 25.3367 12.1397 25.1088 11.9003C24.9106 11.6904 24.9175 11.3388 25.1584 11.111Z" fill="url(#paint28_linear_401_887)"/>
        <path d="M24.29 7.86547C24.5477 7.61938 24.9784 7.63098 25.223 7.88866C25.4691 8.14634 25.4558 8.57881 25.1981 8.82316C24.9042 9.10055 24.4717 9.09069 24.2274 8.83301C23.9845 8.57678 23.9961 8.14431 24.29 7.86547Z" fill="url(#paint29_linear_401_887)"/>
        <path d="M20.5952 15.3983C21.0343 14.9809 21.7178 15.0351 22.1024 15.4412C22.5198 15.882 22.5036 16.5258 22.061 16.9467C21.6563 17.3313 21.0108 17.3133 20.59 16.8722C20.2056 16.4681 20.1891 15.7829 20.5952 15.3983Z" fill="url(#paint30_linear_401_887)"/>
        <path d="M15.8075 10.3516C16.2484 9.93419 16.8939 9.94868 17.3148 10.3913C17.6994 10.7974 17.7159 11.4777 17.2733 11.8985C16.8675 12.2832 16.1872 12.2304 15.8026 11.8243C15.3849 11.3817 15.4014 10.7362 15.8075 10.3516Z" fill="url(#paint31_linear_401_887)"/>
        <path d="M21.503 9.80491C21.9108 9.41882 22.5928 9.47477 22.9792 9.8794C23.3984 10.3203 23.3786 10.9672 22.974 11.3522C22.5299 11.7713 21.8844 11.7565 21.4668 11.3125C21.0821 10.9078 21.0641 10.2243 21.503 9.80491Z" fill="url(#paint32_linear_401_887)"/>
        <path d="M18.3845 12.344C18.9375 11.8226 19.834 11.8803 20.359 12.4319C20.8824 12.9867 20.8575 13.8467 20.3059 14.3701C19.7529 14.8954 18.8564 14.9081 18.3314 14.3551C17.8085 13.8017 17.8332 12.8693 18.3845 12.344Z" fill="url(#paint33_linear_401_887)"/>
        <path d="M6.49403 29.583C6.24301 29.8372 6.24707 30.2679 6.53461 30.5519C6.78881 30.803 7.21983 30.8012 7.46997 30.547C7.75635 30.258 7.75316 29.8273 7.50041 29.5777C7.21142 29.2937 6.78214 29.2937 6.49403 29.583Z" fill="url(#paint34_linear_401_887)"/>
        <path d="M1.82695 25.0229C1.57942 25.2757 1.57942 25.7064 1.83333 25.956C2.12319 26.2429 2.55217 26.2398 2.80406 25.987C3.08957 25.6983 3.08464 25.2673 2.79826 24.98C2.54435 24.729 2.11362 24.7342 1.82695 25.0229Z" fill="url(#paint35_linear_401_887)"/>
        <path d="M0.151202 27.2418C-0.0516975 27.4499 -0.0502482 27.798 0.15468 28.0027C0.391493 28.2374 0.743088 28.234 0.945408 28.0276C1.18077 27.7931 1.17729 27.4418 0.94048 27.2087C0.734972 27.0058 0.383956 27.0076 0.151202 27.2418Z" fill="url(#paint36_linear_401_887)"/>
        <path d="M4.37666 31.5392C4.17347 31.7456 4.17434 32.094 4.38072 32.2986C4.61608 32.5314 4.96681 32.5299 5.17058 32.325C5.40246 32.0873 5.40246 31.7375 5.16478 31.5064C4.95956 31.3012 4.60942 31.3012 4.37666 31.5392Z" fill="url(#paint37_linear_401_887)"/>
        <path d="M1.14848 30.6012C0.90007 30.854 0.900071 31.2847 1.15427 31.5372C1.40587 31.7847 1.83834 31.7833 2.08935 31.5291C2.3708 31.2418 2.36993 30.8093 2.11921 30.5583C1.86558 30.3108 1.43399 30.3143 1.14848 30.6012Z" fill="url(#paint38_linear_401_887)"/>
        <path d="M8.75826 27.0635C8.32986 27.496 8.36957 28.178 8.76667 28.5708C9.20145 28.9998 9.84638 28.9966 10.2739 28.5641C10.6684 28.1647 10.6644 27.5195 10.231 27.0917C9.8345 26.6969 9.15044 26.6656 8.75826 27.0635Z" fill="url(#paint39_linear_401_887)"/>
        <path d="M3.81065 22.1719C3.38224 22.6061 3.38717 23.2516 3.81877 23.6792C4.21819 24.0719 4.89848 24.1035 5.32602 23.671C5.71877 23.2731 5.68254 22.591 5.28457 22.1983C4.85152 21.7708 4.2034 21.7739 3.81065 22.1719Z" fill="url(#paint40_linear_401_887)"/>
        <path d="M3.14772 27.8574C2.75235 28.2554 2.79351 28.9386 3.19003 29.3317C3.62337 29.7595 4.26888 29.756 4.66279 29.3601C5.09265 28.9224 5.08946 28.2786 4.65526 27.8493C4.25786 27.458 3.57438 27.425 3.14772 27.8574Z" fill="url(#paint41_linear_401_887)"/>
        <path d="M5.74853 24.7902C5.21374 25.3334 5.2549 26.2316 5.79635 26.7661C6.33868 27.3041 7.20129 27.296 7.73462 26.7545C8.27115 26.2131 8.30332 25.3151 7.76187 24.78C7.21868 24.2438 6.28505 24.2505 5.74853 24.7902Z" fill="url(#paint42_linear_401_887)"/>
        <path d="M37.8237 5.05465H34.7827L37.4128 0H44.029V28.8074H37.8237V5.05465ZM43.9879 17.7118L49.2892 7.35596H56.3164L50.8097 17.4242C51.3028 18.3009 51.8165 19.2255 52.3507 20.1981C52.885 21.1707 53.4261 22.1501 53.974 23.1364C54.5219 24.1226 55.063 25.102 55.5972 26.0746C56.1314 27.0472 56.6451 27.9582 57.1383 28.8074H50.1522L43.9879 17.7118ZM57.4259 7.35596H64.3298L68.2339 23.3829L72.7132 7.35596H79.1651L74.4392 23.0953C73.9186 24.8212 73.4049 26.5404 72.8981 28.2526C72.3913 29.9649 71.8913 31.643 71.3982 33.2868C71.0694 34.3278 70.679 35.1908 70.227 35.8757C69.7749 36.5607 69.2544 37.1086 68.6653 37.5195C68.0763 37.9305 67.4257 38.2181 66.7134 38.3825C66.0011 38.5469 65.2203 38.6291 64.371 38.6291C63.6861 38.6291 62.9395 38.5537 62.1313 38.4031C61.3232 38.2524 60.3985 38.0127 59.3574 37.6839L61.7409 33.2457L62.7477 33.3895L63.4258 33.4511C63.6998 33.4511 63.9738 33.4306 64.2477 33.3895C64.5217 33.3484 64.7888 33.2457 65.0491 33.0813C65.3093 32.9169 65.5559 32.6498 65.7888 32.2799C66.0217 31.9101 66.234 31.3964 66.4258 30.7389L66.7135 29.506L67.2888 28.8074H63.6725L57.4259 7.35596ZM89.973 7.10939C91.3976 7.10939 92.7263 7.30804 93.9592 7.70531C95.192 8.10257 96.2537 8.73954 97.144 9.61621C98.0343 10.4929 98.733 11.6299 99.2399 13.0271C99.7467 14.4243 100 16.1092 100 18.0817C100 20.0543 99.7467 21.7392 99.2399 23.1364C98.733 24.5336 98.0344 25.6705 97.144 26.5473C96.2536 27.424 95.192 28.0609 93.9592 28.4582C92.7263 28.8554 91.3975 29.054 89.973 29.054C88.521 29.054 87.1853 28.8554 85.9662 28.4582C84.7472 28.0609 83.6923 27.4239 82.8019 26.5473C81.9116 25.6706 81.2129 24.5336 80.7061 23.1364C80.1993 21.7392 79.9459 20.0543 79.9459 18.0817C79.9459 16.1366 80.1993 14.4722 80.7061 13.0887C81.2129 11.7053 81.9115 10.5682 82.8019 9.67786C83.6923 8.78754 84.7471 8.1368 85.9662 7.72586C87.1854 7.31491 88.5209 7.10939 89.973 7.10939ZM89.973 23.6706C91.2058 23.6706 92.1716 23.2596 92.8702 22.4377C93.5688 21.6158 93.9181 20.1638 93.9181 18.0817C93.9181 15.9996 93.5688 14.5408 92.8702 13.7051C92.1716 12.8694 91.2058 12.4517 89.973 12.4517C88.7675 12.4517 87.8017 12.8832 87.0758 13.7462C86.3499 14.6092 85.9868 16.0543 85.9868 18.0817C85.9868 20.1638 86.343 21.6158 87.0553 22.4377C87.7676 23.2596 88.7401 23.6706 89.973 23.6706Z" fill="url(#paint43_linear_401_887)"/>
    </g>
    <defs>
        <linearGradient id="paint0_linear_401_887" x1="7.95435" y1="14.6471" x2="17.9009" y2="14.6471" gradientUnits="userSpaceOnUse">
            <stop stop-color="#2D388A"/>
            <stop offset="1" stop-color="#00AEEF"/>
        </linearGradient>
        <linearGradient id="paint1_linear_401_887" x1="10.9709" y1="17.5666" x2="15.2294" y2="17.5666" gradientUnits="userSpaceOnUse">
            <stop stop-color="#2D388A"/>
            <stop offset="1" stop-color="#00AEEF"/>
        </linearGradient>
        <linearGradient id="paint2_linear_401_887" x1="5.6521" y1="18.3659" x2="8.43536" y2="18.3659" gradientUnits="userSpaceOnUse">
            <stop stop-color="#2D388A"/>
            <stop offset="1" stop-color="#00AEEF"/>
        </linearGradient>
        <linearGradient id="paint3_linear_401_887" x1="11.2258" y1="24.242" x2="14.0097" y2="24.242" gradientUnits="userSpaceOnUse">
            <stop stop-color="#2D388A"/>
            <stop offset="1" stop-color="#00AEEF"/>
        </linearGradient>
        <linearGradient id="paint4_linear_401_887" x1="6.49658" y1="8.30426" x2="7.87174" y2="8.30426" gradientUnits="userSpaceOnUse">
            <stop stop-color="#2D388A"/>
            <stop offset="1" stop-color="#00AEEF"/>
        </linearGradient>
        <linearGradient id="paint5_linear_401_887" x1="1.73218" y1="12.7719" x2="3.10602" y2="12.7719" gradientUnits="userSpaceOnUse">
            <stop stop-color="#2D388A"/>
            <stop offset="1" stop-color="#00AEEF"/>
        </linearGradient>
        <linearGradient id="paint6_linear_401_887" x1="0.135498" y1="10.7281" x2="1.25442" y2="10.7281" gradientUnits="userSpaceOnUse">
            <stop stop-color="#2D388A"/>
            <stop offset="1" stop-color="#00AEEF"/>
        </linearGradient>
        <linearGradient id="paint7_linear_401_887" x1="4.44849" y1="6.52174" x2="5.56712" y2="6.52174" gradientUnits="userSpaceOnUse">
            <stop stop-color="#2D388A"/>
            <stop offset="1" stop-color="#00AEEF"/>
        </linearGradient>
        <linearGradient id="paint8_linear_401_887" x1="1.16919" y1="7.21051" x2="2.50987" y2="7.21051" gradientUnits="userSpaceOnUse">
            <stop stop-color="#2D388A"/>
            <stop offset="1" stop-color="#00AEEF"/>
        </linearGradient>
        <linearGradient id="paint9_linear_401_887" x1="8.58984" y1="10.2046" x2="10.7013" y2="10.2046" gradientUnits="userSpaceOnUse">
            <stop stop-color="#2D388A"/>
            <stop offset="1" stop-color="#00AEEF"/>
        </linearGradient>
        <linearGradient id="paint10_linear_401_887" x1="3.52905" y1="15.0064" x2="5.63978" y2="15.0064" gradientUnits="userSpaceOnUse">
            <stop stop-color="#2D388A"/>
            <stop offset="1" stop-color="#00AEEF"/>
        </linearGradient>
        <linearGradient id="paint11_linear_401_887" x1="3.02466" y1="9.32484" x2="5.13672" y2="9.32484" gradientUnits="userSpaceOnUse">
            <stop stop-color="#2D388A"/>
            <stop offset="1" stop-color="#00AEEF"/>
        </linearGradient>
        <linearGradient id="paint12_linear_401_887" x1="5.46313" y1="11.8715" x2="8.24796" y2="11.8715" gradientUnits="userSpaceOnUse">
            <stop stop-color="#2D388A"/>
            <stop offset="1" stop-color="#00AEEF"/>
        </linearGradient>
        <linearGradient id="paint13_linear_401_887" x1="22.8459" y1="24.9227" x2="24.2185" y2="24.9227" gradientUnits="userSpaceOnUse">
            <stop stop-color="#2D388A"/>
            <stop offset="1" stop-color="#00AEEF"/>
        </linearGradient>
        <linearGradient id="paint14_linear_401_887" x1="18.2798" y1="29.5945" x2="19.6547" y2="29.5945" gradientUnits="userSpaceOnUse">
            <stop stop-color="#2D388A"/>
            <stop offset="1" stop-color="#00AEEF"/>
        </linearGradient>
        <linearGradient id="paint15_linear_401_887" x1="20.5405" y1="31.4903" x2="21.6612" y2="31.4903" gradientUnits="userSpaceOnUse">
            <stop stop-color="#2D388A"/>
            <stop offset="1" stop-color="#00AEEF"/>
        </linearGradient>
        <linearGradient id="paint16_linear_401_887" x1="24.8362" y1="27.2644" x2="25.9567" y2="27.2644" gradientUnits="userSpaceOnUse">
            <stop stop-color="#2D388A"/>
            <stop offset="1" stop-color="#00AEEF"/>
        </linearGradient>
        <linearGradient id="paint17_linear_401_887" x1="23.8584" y1="30.3043" x2="25.2014" y2="30.3043" gradientUnits="userSpaceOnUse">
            <stop stop-color="#2D388A"/>
            <stop offset="1" stop-color="#00AEEF"/>
        </linearGradient>
        <linearGradient id="paint18_linear_401_887" x1="20.2612" y1="22.0474" x2="22.371" y2="22.0474" gradientUnits="userSpaceOnUse">
            <stop stop-color="#2D388A"/>
            <stop offset="1" stop-color="#00AEEF"/>
        </linearGradient>
        <linearGradient id="paint19_linear_401_887" x1="15.3572" y1="27.0069" x2="17.4653" y2="27.0069" gradientUnits="userSpaceOnUse">
            <stop stop-color="#2D388A"/>
            <stop offset="1" stop-color="#00AEEF"/>
        </linearGradient>
        <linearGradient id="paint20_linear_401_887" x1="21.0247" y1="27.6279" x2="23.1354" y2="27.6279" gradientUnits="userSpaceOnUse">
            <stop stop-color="#2D388A"/>
            <stop offset="1" stop-color="#00AEEF"/>
        </linearGradient>
        <linearGradient id="paint21_linear_401_887" x1="17.8606" y1="24.4553" x2="20.6452" y2="24.4553" gradientUnits="userSpaceOnUse">
            <stop stop-color="#2D388A"/>
            <stop offset="1" stop-color="#00AEEF"/>
        </linearGradient>
        <linearGradient id="paint22_linear_401_887" x1="11.6697" y1="12.5731" x2="14.453" y2="12.5731" gradientUnits="userSpaceOnUse">
            <stop stop-color="#2D388A"/>
            <stop offset="1" stop-color="#00AEEF"/>
        </linearGradient>
        <linearGradient id="paint23_linear_401_887" x1="17.3306" y1="18.3657" x2="20.1134" y2="18.3657" gradientUnits="userSpaceOnUse">
            <stop stop-color="#2D388A"/>
            <stop offset="1" stop-color="#00AEEF"/>
        </linearGradient>
        <linearGradient id="paint24_linear_401_887" x1="7.66968" y1="14.4755" x2="17.9611" y2="14.4755" gradientUnits="userSpaceOnUse">
            <stop stop-color="#2D388A"/>
            <stop offset="1" stop-color="#00AEEF"/>
        </linearGradient>
        <linearGradient id="paint25_linear_401_887" x1="22.9316" y1="13.0161" x2="24.3038" y2="13.0161" gradientUnits="userSpaceOnUse">
            <stop stop-color="#2D388A"/>
            <stop offset="1" stop-color="#00AEEF"/>
        </linearGradient>
        <linearGradient id="paint26_linear_401_887" x1="18.4634" y1="8.25296" x2="19.838" y2="8.25296" gradientUnits="userSpaceOnUse">
            <stop stop-color="#2D388A"/>
            <stop offset="1" stop-color="#00AEEF"/>
        </linearGradient>
        <linearGradient id="paint27_linear_401_887" x1="20.7617" y1="6.65498" x2="21.8815" y2="6.65498" gradientUnits="userSpaceOnUse">
            <stop stop-color="#2D388A"/>
            <stop offset="1" stop-color="#00AEEF"/>
        </linearGradient>
        <linearGradient id="paint28_linear_401_887" x1="24.9683" y1="10.9678" x2="26.0871" y2="10.9678" gradientUnits="userSpaceOnUse">
            <stop stop-color="#2D388A"/>
            <stop offset="1" stop-color="#00AEEF"/>
        </linearGradient>
        <linearGradient id="paint29_linear_401_887" x1="24.0564" y1="7.68793" x2="25.3997" y2="7.68793" gradientUnits="userSpaceOnUse">
            <stop stop-color="#2D388A"/>
            <stop offset="1" stop-color="#00AEEF"/>
        </linearGradient>
        <linearGradient id="paint30_linear_401_887" x1="20.2961" y1="15.1098" x2="22.4046" y2="15.1098" gradientUnits="userSpaceOnUse">
            <stop stop-color="#2D388A"/>
            <stop offset="1" stop-color="#00AEEF"/>
        </linearGradient>
        <linearGradient id="paint31_linear_401_887" x1="15.4961" y1="10.0486" x2="17.6043" y2="10.0486" gradientUnits="userSpaceOnUse">
            <stop stop-color="#2D388A"/>
            <stop offset="1" stop-color="#00AEEF"/>
        </linearGradient>
        <linearGradient id="paint32_linear_401_887" x1="21.176" y1="9.54362" x2="23.2856" y2="9.54362" gradientUnits="userSpaceOnUse">
            <stop stop-color="#2D388A"/>
            <stop offset="1" stop-color="#00AEEF"/>
        </linearGradient>
        <linearGradient id="paint33_linear_401_887" x1="17.9546" y1="11.9837" x2="20.7361" y2="11.9837" gradientUnits="userSpaceOnUse">
            <stop stop-color="#2D388A"/>
            <stop offset="1" stop-color="#00AEEF"/>
        </linearGradient>
        <linearGradient id="paint34_linear_401_887" x1="6.31201" y1="29.3653" x2="7.68749" y2="29.3653" gradientUnits="userSpaceOnUse">
            <stop stop-color="#2D388A"/>
            <stop offset="1" stop-color="#00AEEF"/>
        </linearGradient>
        <linearGradient id="paint35_linear_401_887" x1="1.64209" y1="24.7987" x2="3.01564" y2="24.7987" gradientUnits="userSpaceOnUse">
            <stop stop-color="#2D388A"/>
            <stop offset="1" stop-color="#00AEEF"/>
        </linearGradient>
        <linearGradient id="paint36_linear_401_887" x1="0" y1="27.0611" x2="1.12002" y2="27.0611" gradientUnits="userSpaceOnUse">
            <stop stop-color="#2D388A"/>
            <stop offset="1" stop-color="#00AEEF"/>
        </linearGradient>
        <linearGradient id="paint37_linear_401_887" x1="4.2251" y1="31.3564" x2="5.34377" y2="31.3564" gradientUnits="userSpaceOnUse">
            <stop stop-color="#2D388A"/>
            <stop offset="1" stop-color="#00AEEF"/>
        </linearGradient>
        <linearGradient id="paint38_linear_401_887" x1="0.962891" y1="30.379" x2="2.30399" y2="30.379" gradientUnits="userSpaceOnUse">
            <stop stop-color="#2D388A"/>
            <stop offset="1" stop-color="#00AEEF"/>
        </linearGradient>
        <linearGradient id="paint39_linear_401_887" x1="8.45264" y1="26.7799" x2="10.5632" y2="26.7799" gradientUnits="userSpaceOnUse">
            <stop stop-color="#2D388A"/>
            <stop offset="1" stop-color="#00AEEF"/>
        </linearGradient>
        <linearGradient id="paint40_linear_401_887" x1="3.49219" y1="21.8755" x2="5.60253" y2="21.8755" gradientUnits="userSpaceOnUse">
            <stop stop-color="#2D388A"/>
            <stop offset="1" stop-color="#00AEEF"/>
        </linearGradient>
        <linearGradient id="paint41_linear_401_887" x1="2.87109" y1="27.5444" x2="4.98306" y2="27.5444" gradientUnits="userSpaceOnUse">
            <stop stop-color="#2D388A"/>
            <stop offset="1" stop-color="#00AEEF"/>
        </linearGradient>
        <linearGradient id="paint42_linear_401_887" x1="5.36816" y1="24.3816" x2="8.15279" y2="24.3816" gradientUnits="userSpaceOnUse">
            <stop stop-color="#2D388A"/>
            <stop offset="1" stop-color="#00AEEF"/>
        </linearGradient>
        <linearGradient id="paint43_linear_401_887" x1="34.7827" y1="0" x2="100" y2="0" gradientUnits="userSpaceOnUse">
            <stop stop-color="#2D388A"/>
            <stop offset="1" stop-color="#00AEEF"/>
        </linearGradient>
        <clipPath id="clip0_401_887">
            <rect width="100" height="38.6291" fill="white"/>
        </clipPath>
    </defs>
</svg>